<svg width="31" height="20" viewBox="0 0 31 20" fill="none" xmlns="http://www.w3.org/2000/svg">
<path d="M1.49083 8.35022C0.676913 8.35022 0.0170898 9.00839 0.0170898 9.82022C0.0170898 10.6321 0.676913 11.2902 1.49083 11.2902V8.35022ZM29.0007 11.2902C29.8146 11.2902 30.4744 10.6321 30.4744 9.82022C30.4744 9.00839 29.8146 8.35022 29.0007 8.35022V11.2902ZM1.49083 0.510223C0.676913 0.510223 0.0170898 1.16837 0.0170898 1.98022C0.0170898 2.79208 0.676913 3.45022 1.49083 3.45022V0.510223ZM19.8301 3.45022C20.644 3.45022 21.3038 2.79208 21.3038 1.98022C21.3038 1.16837 20.644 0.510223 19.8301 0.510223V3.45022ZM1.49083 16.1902C0.676913 16.1902 0.0170898 16.8484 0.0170898 17.6602C0.0170898 18.4721 0.676913 19.1302 1.49083 19.1302V16.1902ZM19.8301 19.1302C20.644 19.1302 21.3038 18.4721 21.3038 17.6602C21.3038 16.8484 20.644 16.1902 19.8301 16.1902V19.1302ZM1.49083 11.2902H29.0007V8.35022H1.49083V11.2902ZM1.49083 3.45022H19.8301V0.510223H1.49083V3.45022ZM1.49083 19.1302H19.8301V16.1902H1.49083V19.1302Z" fill="white"/>
</svg>
